<svg xmlns:x="http://ns.adobe.com/Extensibility/1.0/" xmlns:i="http://ns.adobe.com/AdobeIllustrator/10.0/" xmlns:graph="http://ns.adobe.com/Graphs/1.0/" xmlns="http://www.w3.org/2000/svg" xmlns:xlink="http://www.w3.org/1999/xlink" xmlns:a="http://ns.adobe.com/AdobeSVGViewerExtensions/3.0/" version="1.1" x="0px" y="0px" viewBox="0 0 100 100" enable-background="new 0 0 100 100" xml:space="preserve"><metadata><sfw xmlns="http://ns.adobe.com/SaveForWeb/1.0/"><slices></slices><sliceSourceBounds height="16383" width="16383" x="-8141" y="-8142" bottomLeftOrigin="true"></sliceSourceBounds></sfw></metadata><g><g><path d="M78.085,15.282L37.757,6.881c-0.438-0.091-0.884-0.137-1.327-0.137c-3.047,0-5.71,2.168-6.332,5.155l-0.2,0.962    c-1.412,0.701-2.524,1.911-3.113,3.405c-2.115,1.066-3.573,3.253-3.573,5.779v22.913l-6.315,30.319    c-0.353,1.692-0.025,3.421,0.922,4.868c0.698,1.064,1.672,1.876,2.812,2.374l-0.005,0.058c-0.152,1.722,0.375,3.4,1.485,4.727    c0.386,0.461,0.845,0.829,1.329,1.157c0.742,2.758,3.257,4.797,6.246,4.797h41.196c3.569,0,6.475-2.905,6.475-6.474V55.791    l0.81-9.146l4.938-23.705C83.832,19.444,81.58,16.009,78.085,15.282z M23.212,86.734c-0.063-0.066-0.139-0.116-0.198-0.188    c-0.861-1.028-1.276-2.317-1.213-3.649c0.039,0.01,0.074,0.027,0.113,0.036l1.298,0.27V86.734z M23.212,82.001l-1.058-0.22    c-0.093-0.02-0.177-0.06-0.269-0.084l1.327-14.969V82.001z M23.212,53.394l-2.468,27.853c-0.772-0.413-1.447-0.993-1.94-1.747    c-0.775-1.184-1.043-2.599-0.755-3.983l5.164-24.787V53.394z M30.922,13.716c0.583-0.224,1.208-0.352,1.86-0.352    c0.157,0,0.315,0.007,0.474,0.021l24.671,2.186H30.536L30.922,13.716z M29.556,14.507l-0.226,1.083    c-0.285,0.016-0.566,0.046-0.84,0.098C28.793,15.247,29.134,14.836,29.556,14.507z M76.179,86.783c0,2.92-2.376,5.296-5.297,5.296    H29.686c-2.921,0-5.296-2.376-5.296-5.296V22.045c0-2.92,2.375-5.296,5.296-5.296h41.196c2.921,0,5.297,2.376,5.297,5.296V86.783z     M77.356,42.456V22.045c0-1.937-0.86-3.673-2.213-4.86c2.463,0.635,4.188,2.966,3.957,5.581L77.356,42.456z M81.953,22.699    l-2.897,13.906l1.218-13.736c0.313-3.556-2.323-6.705-5.879-7.02L33.36,12.213c-0.75-0.067-1.475-0.001-2.16,0.169l0.05-0.243    c0.508-2.444,2.687-4.218,5.18-4.218c0.363,0,0.728,0.038,1.086,0.112l40.329,8.401C80.705,17.029,82.547,19.84,81.953,22.699z"></path><path d="M51.5,42.055l-7.833,7.833c-2.163,2.162-2.163,5.67,0,7.833c1.922,1.922,4.902,2.132,7.061,0.639    c-0.294,4.331-1.305,5.851-1.305,5.851h-2.077v1.385h8.309v-1.385h-2.077c0,0-1.011-1.52-1.305-5.851    c2.159,1.493,5.14,1.283,7.062-0.639c2.163-2.163,2.163-5.671,0-7.833L51.5,42.055z"></path><path d="M30.903,21.395l-2.958,2.958c-0.817,0.817-0.817,2.142,0,2.958c0.726,0.726,1.851,0.805,2.666,0.241    c-0.11,1.635-0.492,2.209-0.492,2.209h-0.785v0.523h3.138v-0.523h-0.785c0,0-0.382-0.574-0.492-2.209    c0.815,0.564,1.94,0.484,2.667-0.241c0.816-0.817,0.816-2.142,0-2.958L30.903,21.395z"></path><path d="M69.157,80.247l-2.958,2.959c-0.818,0.815-0.818,2.14,0,2.957c0.726,0.726,1.851,0.806,2.666,0.241    c-0.11,1.636-0.492,2.21-0.492,2.21h-0.785v0.522h3.138v-0.522H69.94c0,0-0.381-0.574-0.491-2.21    c0.814,0.564,1.939,0.484,2.666-0.241c0.816-0.817,0.816-2.142,0-2.957L69.157,80.247z"></path></g></g></svg>