<svg xmlns="http://www.w3.org/2000/svg" xmlns:xlink="http://www.w3.org/1999/xlink" version="1.1" x="0px" y="0px" viewBox="0 0 75 75" enable-background="new 0 0 75 75" xml:space="preserve"><path d="M61.961,49.91l5.617-1.035l5.617-1.035l-5.709-0.175l-5.71-0.175l0.049,0.631L49.9,49.027l0.089,1.158l11.923-0.906  L61.961,49.91z M61.275,45.264l4.659-1.482l5.226-1.662l-5.458,0.536l-5.689,0.601l0.355,0.522l-11.243,2.313l0.468,1.027  l11.357-2.343L61.275,45.264z M56.088,42.206l2.716-1.343l2.783-1.355l-3.208,0.794l-3.761,0.878l0.368,0.252l-7.978,2.42  l1.103,0.686l7.605-2.532L56.088,42.206z M12.815,49.279l11.924,0.906l0.088-1.158l-11.924-0.906l0.048-0.631l-5.71,0.175  L1.532,47.84l5.618,1.035l5.617,1.035L12.815,49.279z M13.777,44.776l11.358,2.343l0.468-1.027l-11.243-2.313l0.355-0.522  l-5.689-0.601l-5.458-0.536l5.225,1.662l4.659,1.482L13.777,44.776z M19.011,42.005l7.606,2.532l1.103-0.686l-7.978-2.42  l0.368-0.252l-3.761-0.878l-3.208-0.794l2.783,1.355l2.716,1.343L19.011,42.005z M41.222,35.946l-1.753-2.83v0.011h-4.21v-0.011  l-1.752,2.83l-3.858,6.23h1.198v7.536h5.151v-5.221h2.731v5.221h5.153v-7.536h1.195L41.222,35.946z M35.259,29.179h-0.497  l1.302-5.711l1.015-4.457V16.83h-0.893v-0.573h0.893v-1.27h0.572v1.27h0.894v0.573H37.65v2.185l1.015,4.453l1.302,5.711h-0.498  H35.259z M35.259,29.736h4.21v2.833h-4.21V29.736z"></path></svg>