<svg xmlns="http://www.w3.org/2000/svg" xmlns:xlink="http://www.w3.org/1999/xlink" version="1.1" x="0px" y="0px" viewBox="0 0 59.97 59.83" enable-background="new 0 0 59.97 59.83" xml:space="preserve"><g><path d="M24.02,40.05c-0.39-0.39-1.02-0.39-1.41,0l-8.02,8.02l-0.71-0.71l8.9-8.9c0.39-0.39,0.39-1.02,0-1.41s-1.02-0.39-1.41,0   l-8.9,8.9l-0.71-0.71l8.02-8.02c0.39-0.39,0.39-1.02,0-1.41s-1.02-0.39-1.41,0l-8.02,8.02l-0.71-0.71c-0.39-0.39-1.02-0.39-1.41,0   s-0.39,1.02,0,1.41l0.71,0.71l-0.71,0.71c-0.39,0.39-0.39,1.02,0,1.41c0.2,0.2,0.45,0.29,0.71,0.29s0.51-0.1,0.71-0.29l0.71-0.71   l0.71,0.71l-0.71,0.71c-0.39,0.39-0.39,1.02,0,1.41c0.2,0.2,0.45,0.29,0.71,0.29s0.51-0.1,0.71-0.29l0.71-0.71l0.71,0.71   l-0.71,0.71c-0.39,0.39-0.39,1.02,0,1.41c0.2,0.2,0.45,0.29,0.71,0.29s0.51-0.1,0.71-0.29l0.71-0.71l0.71,0.71   c0.2,0.2,0.45,0.29,0.71,0.29s0.51-0.1,0.71-0.29c0.39-0.39,0.39-1.02,0-1.41L16,49.48l8.02-8.02   C24.41,41.07,24.41,40.44,24.02,40.05z"></path><path d="M18.57,32.75c-4.69,0-8.5,3.81-8.5,8.5h2c0-3.58,2.92-6.5,6.5-6.5s6.5,2.92,6.5,6.5s-2.92,6.5-6.5,6.5v2   c4.69,0,8.5-3.81,8.5-8.5S23.26,32.75,18.57,32.75z"></path><path d="M58.81,10.94c1.7-2.3,1.53-5.54-0.55-7.62l-1.6-1.6C55.55,0.61,54.08,0,52.51,0c-1.27,0-2.48,0.41-3.49,1.15L48.27,0.4   c-0.39-0.39-1.02-0.39-1.41,0s-0.39,1.02,0,1.41l0.71,0.71l-1.41,1.41l-0.71-0.71c-0.39-0.39-1.02-0.39-1.41,0   c-0.39,0.39-0.39,1.02,0,1.41l0.71,0.71l-0.05,0.05c-0.97,0.97-0.97,2.56,0,3.54c0.13,0.13,0.15,0.28,0.15,0.35   s-0.02,0.23-0.15,0.35L26.21,28.12c-2.13-1.28-4.58-2.08-7.21-2.24v-1.05c0-0.55-0.45-1-1-1s-1,0.45-1,1v1.05   c-3.66,0.23-6.98,1.68-9.57,3.97L6.69,29.1c-0.39-0.39-1.02-0.39-1.41,0c-0.39,0.39-0.39,1.02,0,1.41l0.75,0.75   c-2.28,2.59-3.74,5.91-3.97,9.57H1c-0.55,0-1,0.45-1,1s0.45,1,1,1h1.05c0.23,3.66,1.68,6.98,3.97,9.57l-0.75,0.75   c-0.39,0.39-0.39,1.02,0,1.41c0.2,0.2,0.45,0.29,0.71,0.29s0.51-0.1,0.71-0.29l0.75-0.75c2.59,2.28,5.91,3.74,9.57,3.97v1.05   c0,0.55,0.45,1,1,1s1-0.45,1-1v-1.05c3.66-0.23,6.98-1.68,9.57-3.97l0.75,0.75c0.2,0.2,0.45,0.29,0.71,0.29s0.51-0.1,0.71-0.29   c0.39-0.39,0.39-1.02,0-1.41l-0.75-0.75c2.28-2.59,3.74-5.91,3.97-9.57H35c0.55,0,1-0.45,1-1s-0.45-1-1-1h-1.05   c-0.16-2.54-0.91-4.93-2.12-7.01l18.52-18.52c0.13-0.13,0.28-0.15,0.35-0.15c0.08,0,0.23,0.02,0.35,0.15   c0.94,0.94,2.59,0.95,3.54,0l0.05-0.05l0.71,0.71c0.2,0.2,0.45,0.29,0.71,0.29s0.51-0.1,0.71-0.29c0.39-0.39,0.39-1.02,0-1.41   l-0.71-0.71l1.41-1.41l0.71,0.71c0.2,0.2,0.45,0.29,0.71,0.29s0.51-0.1,0.71-0.29c0.39-0.39,0.39-1.02,0-1.41L58.81,10.94z    M18,55.83c-7.72,0-14-6.28-14-14s6.28-14,14-14c3.75,0,7.16,1.49,9.68,3.91c0.08,0.07,0.16,0.14,0.23,0.21   c0.15,0.15,0.28,0.31,0.42,0.46c0.18,0.2,0.36,0.39,0.53,0.6c0.08,0.1,0.15,0.2,0.22,0.3c0.21,0.28,0.42,0.56,0.62,0.85   c1.45,2.21,2.3,4.84,2.3,7.67C32,49.55,25.72,55.83,18,55.83z M52.82,14.03c-0.08,0-0.23-0.02-0.35-0.15   c-0.94-0.95-2.59-0.94-3.54,0L30.7,32.11c-0.04-0.06-0.1-0.11-0.14-0.16c-0.18-0.23-0.37-0.45-0.56-0.67L52.35,8.84   c0.39-0.39,0.39-1.02,0-1.42c-0.39-0.39-1.02-0.39-1.41,0L28.59,29.86c-0.18-0.16-0.35-0.32-0.54-0.47   c-0.05-0.04-0.1-0.1-0.16-0.14L46.1,11.05c0.47-0.47,0.73-1.1,0.73-1.77c0-0.67-0.26-1.29-0.73-1.77c-0.19-0.2-0.19-0.51,0-0.71   l0.75-0.75c0,0,0,0,0,0s0,0,0,0l2.92-2.92c1.46-1.46,4.01-1.46,5.47,0l1.6,1.6c1.51,1.51,1.51,3.96,0,5.47l-0.09,0.09h0v0   l-3.58,3.58C53.05,14.01,52.9,14.03,52.82,14.03z"></path></g></svg>