<?xml version="1.0" encoding="utf-8"?><!DOCTYPE svg PUBLIC "-//W3C//DTD SVG 1.1//EN" "http://www.w3.org/Graphics/SVG/1.1/DTD/svg11.dtd"><svg version="1.1" xmlns="http://www.w3.org/2000/svg" xmlns:xlink="http://www.w3.org/1999/xlink" x="0px" y="0px" viewBox="0 0 83.216 100" enable-background="new 0 0 83.216 100" xml:space="preserve"><g><path fill="#010101" d="M41.003,10.062c0,0-0.097-2.568-1.42-4.872C38.039,2.5,33.56,0.247,28.426,0h-0.907
		c-5.136,0.247-9.613,2.5-11.157,5.19c-1.325,2.304-1.418,4.872-1.418,4.872h6.352c-0.344,0.845-0.54,1.764-0.54,2.735
		c0,4.003,3.244,7.249,7.251,7.249c4.003,0,7.25-3.246,7.25-7.249c0-0.969-0.198-1.89-0.542-2.735H41.003z"></path><g><path fill="#010101" d="M60.358,46.945l-15.436-20.35c-1.18-1.636-3.358-4.951-8.205-4.922l-7.284-0.004v26.367H18.371
			L18.365,95.63c0,2.412,1.958,4.37,4.37,4.37c2.417,0,4.373-1.958,4.373-4.37l0.002-36.664h1.946L29.044,95.63
			c0,2.412,1.958,4.37,4.37,4.37s4.368-1.958,4.368-4.37l0.006-22.771c0.865,0.12,1.783,0.305,2.692,0.616
			c8.033,2.723,5.586,19.526,16.026,23.71c11.568,4.635,16.083-7.721,20.532-9.056c3.268-0.977,6.177,0.245,6.177,0.245v-41.43
			H60.358z M40.276,46.945V32.826l10.902,14.119H40.276z"></path><path fill="#010101" d="M14.899,45.855h12.354V21.669l-8.008-0.004c-2.23,0-4.116,0.746-5.583,1.991
			c-0.103,0.059-12.153,8.713-12.153,8.713C0.561,33.051,0,34.146,0,35.316v13.627c0,2.007,1.627,3.634,3.634,3.634
			c2.007,0,3.634-1.625,3.634-3.634V37.175l7.631-5.501V45.855z M15.407,31.311l0.021,0.008h-0.033L15.407,31.311z"></path></g></g></svg>