<svg xmlns="http://www.w3.org/2000/svg" xmlns:xlink="http://www.w3.org/1999/xlink" version="1.1" x="0px" y="0px" viewBox="-65.5 71.958 409.333 214" enable-background="new -65.5 71.958 409.333 214" xml:space="preserve"><circle fill="#000000" cx="247.165" cy="121.302" r="27.667"></circle><circle fill="#000000" cx="303.939" cy="232.065" r="27.667"></circle><path fill="#000000" d="M93.72,200.73c-5.914,3.657-13.505,7.691-22.729,11.359c-4.277,1.7-8.64,3.202-13.068,4.548  c-1.857,2.915-3.724,6.096-5.584,9.54c-3.148,5.829-9.223,9.45-15.854,9.45c-2.963,0-5.914-0.749-8.537-2.165  c-4.049-2.186-6.904-5.717-8.353-9.738c-15.293,1.155-31.25,0.538-47.799-1.906c-9.831-1.449-18.983,5.343-20.437,15.177  c-1.452,9.835,5.343,18.984,15.178,20.437c12.684,1.873,25.249,2.804,37.585,2.804c29.038,0,56.787-5.157,81.697-15.308  c11.637-4.742,21.366-10.021,29.153-15.023C109.903,220.08,101.967,207.729,93.72,200.73z"></path><g><path fill="#000000" d="M266.561,219.837c-0.828-1.146-2.201-2.773-3.216-3.713c-1.842-2.679-4.554-4.787-7.898-5.825   c-16.683-5.178-18.753-7.779-23.358-16.003c-4.048-7.228-13.188-9.806-20.417-5.759c-3.429,1.92-5.795,4.991-6.92,8.455   c-2.452-4.242-3.285-8.554-3.372-12.258c-0.133-5.663,1.45-10.824,3.795-14.736c5.598-2.163,10.01-6.275,12.635-11.343   c2.61-3.468,3.647-7.982,2.654-12.346c-0.084-1.492-0.303-2.997-0.679-4.501c-3.212-12.861-16.254-20.684-29.1-17.469   c-44.973,11.233-55.271,21.053-71.3,44.234c-0.978,1.414-1.968,2.846-3.005,4.32c8.896,7.377,17.23,17.712,25.093,30.775   c2.859,4.751,2.784,5.201,3.984,4.602c2.037-1.018,4.311-1.876,6.473-2.591c2.66-3.627,4.899-6.862,6.937-9.809   c5.425-7.847,7.78-11.134,11.634-13.716c0.293-0.196,0.607-0.393,0.93-0.59c-0.058,1.285-0.073,2.577-0.043,3.873   c0.156,6.663,1.454,13.029,3.781,18.955c-10.334,0.756-19.001,2.615-26.531,5.684c-0.741,0.303-5.372,2.917-5.738,2.238   c-1.294-2.394-2.612-4.773-4.004-7.113c-7.569-12.731-15.693-22.719-24.256-29.859c-3.721-3.104-7.521-5.676-11.398-7.691   c-7.016-3.646-14.217-5.496-21.403-5.496c-21.521,0-41.214,16.265-58.536,48.342c-2.247,4.162-2.311,8.922-0.598,12.973   c1.281,3.033,3.555,5.67,6.67,7.354c2.186,1.18,4.645,1.804,7.111,1.804c5.527,0,10.59-3.018,13.215-7.876   c1.301-2.41,2.604-4.688,3.906-6.847c10.034-16.623,20.005-25.679,28.445-25.679c0.33,0,0.656,0.014,0.981,0.042   c4.458,0.378,8.975,2.983,13.288,6.809c8.494,7.532,16.196,19.802,21.111,29.214c2.412,4.621,4.156,8.554,4.988,10.891l0.041,0.133   c0.264,1.038,0.648,2.064,1.144,3.051l0.118,0.32c0.91,3.761,2.823,7.182,5.533,9.891c3.966,3.967,9.238,6.151,14.846,6.151h0.004   c5.609,0,10.883-2.185,14.849-6.149c4.472-4.473,13.134-6.556,27.26-6.556c13.743,0,33.228,2.054,59.565,6.278   c1.11,0.178,2.239,0.268,3.354,0.268c10.355,0.001,19.063-7.434,20.705-17.678C270.728,229.352,269.849,224.382,266.561,219.837z"></path></g></svg>